<svg version="1.1" id="Layer_1" xmlns="http://www.w3.org/2000/svg" xmlns:xlink="http://www.w3.org/1999/xlink" x="0px" y="0px"	 viewBox="0 0 512 512" style="enable-background:new 0 0 512 512;" xml:space="preserve"><polygon style="fill:#88ACB5;" points="433.231,410.728 433.231,478.244 399.473,478.244 365.714,376.969 "/><rect x="78.769" y="376.967" style="fill:#A7CBCF;" width="320.703" height="101.275"/><polygon style="fill:#FF4719;" points="466.989,376.969 433.231,410.728 399.473,410.728 399.473,343.211 "/><g>	<polygon style="fill:#FF754F;" points="433.231,376.969 399.473,410.728 78.769,410.728 45.011,376.969 239.121,320.706 	"/>	<polygon style="fill:#FF754F;" points="466.989,258.815 466.989,376.969 433.231,376.969 399.473,258.815 	"/></g><rect x="45.011" y="258.813" style="fill:#FF9269;" width="388.22" height="118.154"/><rect x="309.451" y="22.505" style="fill:#2F5E88;" width="56.264" height="157.538"/><rect x="146.286" y="22.505" style="fill:#367596;" width="185.67" height="157.538"/><polygon style="fill:#88ACB5;" points="343.209,157.538 320.703,180.044 343.209,202.549 376.967,202.549 376.967,157.538 "/><rect x="135.033" y="157.538" style="fill:#A7CBCF;" width="208.176" height="45.011"/><polygon style="fill:#88ACB5;" points="343.209,0 320.703,22.505 343.209,45.011 376.967,45.011 376.967,0 "/><rect x="135.033" style="fill:#A7CBCF;" width="208.176" height="45.011"/><polygon style="fill:#88ACB5;" points="343.209,78.769 320.703,101.275 343.209,123.78 376.967,123.78 376.967,78.769 "/><rect x="135.033" y="78.769" style="fill:#A7CBCF;" width="208.176" height="45.011"/><polygon style="fill:#2F5E88;" points="478.242,270.066 444.484,270.066 421.978,253.187 444.484,236.308 478.242,236.308 "/><rect x="33.758" y="236.308" style="fill:#367596;" width="410.725" height="33.758"/><g>	<path style="fill:#FF754F;" d="M185.67,295.385c-4.661,0-8.44,3.779-8.44,8.44v84.396h16.879v-84.396		C194.11,299.163,190.331,295.385,185.67,295.385z"/>	<path style="fill:#FF754F;" d="M326.33,295.385c-4.661,0-8.44,3.779-8.44,8.44v84.396h16.879v-84.396		C334.769,299.163,330.991,295.385,326.33,295.385z"/></g><path style="fill:#2F5E88;" d="M180.044,444.484c18.644,0,33.758,15.115,33.758,33.758c0,18.644-15.115,33.758-33.758,33.758	l-13.129-33.758L180.044,444.484z"/><path style="fill:#367596;" d="M146.286,478.242c0,18.644,15.115,33.758,33.758,33.758v-67.516	C161.4,444.484,146.286,459.598,146.286,478.242z"/><path style="fill:#2F5E88;" d="M331.956,444.484c18.644,0,33.758,15.115,33.758,33.758c0,18.644-15.115,33.758-33.758,33.758	l-13.129-33.758L331.956,444.484z"/><path style="fill:#367596;" d="M298.198,478.242c0,18.644,15.115,33.758,33.758,33.758v-67.516	C313.313,444.484,298.198,459.598,298.198,478.242z"/><g></g><g></g><g></g><g></g><g></g><g></g><g></g><g></g><g></g><g></g><g></g><g></g><g></g><g></g><g></g></svg>
